{"asset":{"version":"2.0","generator":"Blockbench 4.11.1 glTF exporter"},"scenes":[{"nodes":[2],"name":"blockbench_export"}],"scene":0,"nodes":[{"translation":[0.0022,0.0008,0.0031999999999999993],"name":"cuboid","mesh":0},{"translation":[0.0015,0.003402,0.0032],"name":"cuboid","mesh":1},{"children":[0,1]}],"bufferViews":[{"buffer":0,"byteOffset":0,"byteLength":288,"target":34962,"byteStride":12},{"buffer":0,"byteOffset":288,"byteLength":288,"target":34962,"byteStride":12},{"buffer":0,"byteOffset":576,"byteLength":192,"target":34962,"byteStride":8},{"buffer":0,"byteOffset":768,"byteLength":72,"target":34963},{"buffer":0,"byteOffset":840,"byteLength":1152,"target":34962,"byteStride":12},{"buffer":0,"byteOffset":1992,"byteLength":1152,"target":34962,"byteStride":12},{"buffer":0,"byteOffset":3144,"byteLength":768,"target":34962,"byteStride":8},{"buffer":0,"byteOffset":3912,"byteLength":288,"target":34963}],"buffers":[{"byteLength":4200,"uri":"data:application/octet-stream;base64,"}],"accessors":[{"bufferView":0,"componentType":5126,"count":24,"max":[0.000800000037997961,0.003599999938160181,0.0012000000569969416],"min":[-0.000800000037997961,0.002400000113993883,-0.0012000000569969416],"type":"VEC3"},{"bufferView":1,"componentType":5126,"count":24,"max":[1,1,1],"min":[-1,-1,-1],"type":"VEC3"},{"bufferView":2,"componentType":5126,"count":24,"max":[0.1875,0.1875],"min":[0,0],"type":"VEC2"},{"bufferView":3,"componentType":5123,"count":36,"max":[23],"min":[0],"type":"SCALAR"},{"bufferView":4,"componentType":5126,"count":96,"max":[0.0015020000282675028,0.0010000000474974513,0.0012000000569969416],"min":[-0.00010199999815085903,-0.00020200001017656177,-0.0012000000569969416],"type":"VEC3"},{"bufferView":5,"componentType":5126,"count":96,"max":[1,1,0],"min":[-1,-1,0],"type":"VEC3"},{"bufferView":6,"componentType":5126,"count":96,"max":[0.0625,0.0625],"min":[0,0],"type":"VEC2"},{"bufferView":7,"componentType":5123,"count":144,"max":[95],"min":[0],"type":"SCALAR"}],"materials":[{"pbrMetallicRoughness":{"metallicFactor":0,"roughnessFactor":1},"alphaMode":"MASK","alphaCutoff":0.05,"doubleSided":true},{"pbrMetallicRoughness":{"metallicFactor":0,"roughnessFactor":1},"alphaMode":"MASK","alphaCutoff":0.05,"doubleSided":true}],"meshes":[{"primitives":[{"mode":4,"attributes":{"POSITION":0,"NORMAL":1,"TEXCOORD_0":2},"indices":3,"material":0}]},{"primitives":[{"mode":4,"attributes":{"POSITION":4,"NORMAL":5,"TEXCOORD_0":6},"indices":7,"material":1}]}]}